<svg height="512" viewBox="0 0 128 128" width="512" xmlns="http://www.w3.org/2000/svg"><g><path d="m14.157 62.348a50.163 50.163 0 0 1 99.686 0z" fill="#f2e7cb"/><path d="m6.306 62.348h115.387v11.303h-115.387z" fill="#8c3f07"/><path d="m111.5 92.754h-28.379a5.493 5.493 0 0 0 5.493-5.493 5.494 5.494 0 0 0 -5.493-5.493h-41.193a13.974 13.974 0 0 0 -12.128 7.042l-18.79 32.884h28.753l10.412-17.954h61.325a5.493 5.493 0 0 0 0-10.986z" fill="#ef983b"/><path d="m64 17.843a50.445 50.445 0 0 1 7.115.5 8.121 8.121 0 1 0 -14.23 0 50.445 50.445 0 0 1 7.115-.5z" fill="#8c3f07"/><path d="m102.248 56.291a1.751 1.751 0 0 1 -1.666-1.213 38.452 38.452 0 0 0 -11.076-16.944 1.75 1.75 0 1 1 2.324-2.617 41.97 41.97 0 0 1 12.084 18.483 1.749 1.749 0 0 1 -1.666 2.287z" fill="#e0d2b3"/><path d="m83.575 33.532a1.734 1.734 0 0 1 -.851-.222 38.353 38.353 0 0 0 -5.651-2.581 1.75 1.75 0 1 1 1.19-3.291 41.743 41.743 0 0 1 6.168 2.817 1.75 1.75 0 0 1 -.856 3.277z" fill="#e0d2b3"/><path d="m85.81 92.75a1.752 1.752 0 0 1 -1.75 1.75h-23.91a1.75 1.75 0 0 1 0-3.5h23.91a1.732 1.732 0 0 1 1.62 1.12 5.478 5.478 0 0 1 -2.56.63z" fill="#d87c30"/></g></svg>