<svg id="Capa_1" enable-background="new 0 0 512 512" height="512" viewBox="0 0 512 512" width="512" xmlns="http://www.w3.org/2000/svg"><g><path d="m504.5 121.87v268.26c0 11.05-8.95 20-20 20h-457c-11.05 0-20-8.95-20-20v-268.26c0-11.05 8.95-20 20-20h457c11.05 0 20 8.95 20 20z" fill="#fee265"/><path d="m504.5 121.87v268.26c0 11.05-8.95 20-20 20h-22.67c11.05 0 20-8.95 20-20v-268.26c0-11.05-8.95-20-20-20h22.67c11.05 0 20 8.95 20 20z" fill="#fdd330"/><path d="m504.5 350.37v39.76c0 11.05-8.95 20-20 20h-457c-11.05 0-20-8.95-20-20v-39.76z" fill="#9e9797"/><path d="m504.5 350.37v39.76c0 11.05-8.95 20-20 20h-22.67c11.05 0 20-8.95 20-20v-39.76z" fill="#848181"/><path d="m123.333 195.673h-64.26c-2.761 0-5-2.239-5-5v-44.34c0-2.761 2.239-5 5-5h64.26c2.761 0 5 2.239 5 5v44.34c0 2.761-2.238 5-5 5z" fill="#fca62f"/><g><path d="m435.407 182.756h-109.592c-5.523 0-10-4.477-10-10v-21.423c0-5.523 4.477-10 10-10h109.592c5.523 0 10 4.477 10 10v21.423c0 5.523-4.477 10-10 10z" fill="#3ad1e0"/><path d="m445.41 151.33v21.43c0 5.52-4.48 10-10 10h-17.5c5.52 0 10-4.48 10-10v-21.43c0-5.52-4.48-10-10-10h17.5c5.52 0 10 4.48 10 10z" fill="#20bfd5"/><g><path d="m7.5 289.5c4.142 0 7.5-3.357 7.5-7.5v-160.131c0-6.893 5.607-12.5 12.5-12.5h128.5c4.142 0 7.5-3.357 7.5-7.5s-3.358-7.5-7.5-7.5h-128.5c-15.164 0-27.5 12.337-27.5 27.5v160.131c0 4.143 3.358 7.5 7.5 7.5z"/><path d="m484.5 94.369h-294.5c-4.142 0-7.5 3.357-7.5 7.5s3.358 7.5 7.5 7.5h294.5c6.893 0 12.5 5.607 12.5 12.5v221.001h-482v-26.87c0-4.143-3.358-7.5-7.5-7.5s-7.5 3.357-7.5 7.5v74.131c0 15.163 12.336 27.5 27.5 27.5h457c15.164 0 27.5-12.337 27.5-27.5v-268.262c0-15.163-12.336-27.5-27.5-27.5zm0 308.262h-457c-6.893 0-12.5-5.607-12.5-12.5v-32.261h482v32.261c0 6.892-5.607 12.5-12.5 12.5z"/><path d="m46.574 258.805c0 4.143 3.358 7.5 7.5 7.5s7.5-3.357 7.5-7.5v-13.004c0-4.143-3.358-7.5-7.5-7.5s-7.5 3.357-7.5 7.5z"/><path d="m74.833 245.801v13.004c0 4.143 3.358 7.5 7.5 7.5s7.5-3.357 7.5-7.5v-13.004c0-4.143-3.358-7.5-7.5-7.5s-7.5 3.357-7.5 7.5z"/><path d="m103.093 245.801v13.004c0 4.143 3.358 7.5 7.5 7.5s7.5-3.357 7.5-7.5v-13.004c0-4.143-3.358-7.5-7.5-7.5s-7.5 3.357-7.5 7.5z"/><path d="m131.353 245.801v13.004c0 4.143 3.358 7.5 7.5 7.5s7.5-3.357 7.5-7.5v-13.004c0-4.143-3.358-7.5-7.5-7.5s-7.5 3.357-7.5 7.5z"/><path d="m184.221 266.305c4.142 0 7.5-3.357 7.5-7.5v-13.004c0-4.143-3.358-7.5-7.5-7.5s-7.5 3.357-7.5 7.5v13.004c0 4.142 3.358 7.5 7.5 7.5z"/><path d="m212.48 238.301c-4.142 0-7.5 3.357-7.5 7.5v13.004c0 4.143 3.358 7.5 7.5 7.5s7.5-3.357 7.5-7.5v-13.004c0-4.143-3.357-7.5-7.5-7.5z"/><path d="m248.24 258.805v-13.004c0-4.143-3.358-7.5-7.5-7.5s-7.5 3.357-7.5 7.5v13.004c0 4.143 3.358 7.5 7.5 7.5s7.5-3.358 7.5-7.5z"/><path d="m276.5 258.805v-13.004c0-4.143-3.357-7.5-7.5-7.5s-7.5 3.357-7.5 7.5v13.004c0 4.143 3.357 7.5 7.5 7.5s7.5-3.358 7.5-7.5z"/><path d="m306.868 258.805c0 4.143 3.357 7.5 7.5 7.5s7.5-3.357 7.5-7.5v-13.004c0-4.143-3.357-7.5-7.5-7.5s-7.5 3.357-7.5 7.5z"/><path d="m335.128 245.801v13.004c0 4.143 3.357 7.5 7.5 7.5s7.5-3.357 7.5-7.5v-13.004c0-4.143-3.357-7.5-7.5-7.5s-7.5 3.357-7.5 7.5z"/><path d="m370.888 238.301c-4.143 0-7.5 3.357-7.5 7.5v13.004c0 4.143 3.357 7.5 7.5 7.5s7.5-3.357 7.5-7.5v-13.004c0-4.143-3.358-7.5-7.5-7.5z"/><path d="m399.147 238.301c-4.143 0-7.5 3.357-7.5 7.5v13.004c0 4.143 3.357 7.5 7.5 7.5s7.5-3.357 7.5-7.5v-13.004c0-4.143-3.357-7.5-7.5-7.5z"/><path d="m54.074 297.5h28.26c4.142 0 7.5-3.357 7.5-7.5s-3.358-7.5-7.5-7.5h-28.26c-4.142 0-7.5 3.357-7.5 7.5s3.358 7.5 7.5 7.5z"/><path d="m54.074 323.833h130.147c4.142 0 7.5-3.357 7.5-7.5s-3.358-7.5-7.5-7.5h-130.147c-4.142 0-7.5 3.357-7.5 7.5s3.358 7.5 7.5 7.5z"/><path d="m213.729 316.333c0 4.143 3.358 7.5 7.5 7.5h15.345c4.142 0 7.5-3.357 7.5-7.5s-3.358-7.5-7.5-7.5h-15.345c-4.142 0-7.5 3.357-7.5 7.5z"/><path d="m123.333 133.833h-64.26c-6.893 0-12.5 5.607-12.5 12.5v44.34c0 6.893 5.607 12.5 12.5 12.5h64.26c6.893 0 12.5-5.607 12.5-12.5v-44.34c0-6.893-5.607-12.5-12.5-12.5zm-61.759 54.34v-8.673h7.13c4.142 0 7.5-3.357 7.5-7.5s-3.358-7.5-7.5-7.5h-7.13v-15.667h22.13v10.667c0 4.143 3.358 7.5 7.5 7.5s7.5-3.357 7.5-7.5v-10.667h22.13v15.667h-7.13c-4.142 0-7.5 3.357-7.5 7.5s3.358 7.5 7.5 7.5h7.13v8.673z"/><path d="m435.407 190.256c9.649 0 17.5-7.851 17.5-17.5v-21.423c0-9.649-7.851-17.5-17.5-17.5h-109.593c-9.649 0-17.5 7.851-17.5 17.5v21.423c0 9.649 7.851 17.5 17.5 17.5h51.519c4.143 0 7.5-3.357 7.5-7.5s-3.357-7.5-7.5-7.5h-51.519c-1.379 0-2.5-1.121-2.5-2.5v-21.423c0-1.379 1.121-2.5 2.5-2.5h109.593c1.379 0 2.5 1.121 2.5 2.5v21.423c0 1.379-1.121 2.5-2.5 2.5h-24.073c-4.143 0-7.5 3.357-7.5 7.5s3.357 7.5 7.5 7.5z"/></g></g></g></svg>