<?xml version="1.0" encoding="iso-8859-1"?>
<!-- Generator: Adobe Illustrator 19.0.0, SVG Export Plug-In . SVG Version: 6.00 Build 0)  -->
<svg version="1.1" id="Capa_1" xmlns="http://www.w3.org/2000/svg" xmlns:xlink="http://www.w3.org/1999/xlink" x="0px" y="0px"
	 viewBox="0 0 480 480" style="enable-background:new 0 0 480 480;" xml:space="preserve">
<path style="fill:#C49A6C;" d="M472,72c0-8.837-7.163-16-16-16H24c-8.837,0-16,7.163-16,16s7.163,16,16,16h432
	C464.837,88,472,80.837,472,72z"/>
<path style="fill:#EBE5DD;" d="M8,424h24l72-272h272l72,272h24L416,88H64L8,424z"/>
<g>
	<path style="fill:#231F20;" d="M456,96c13.255,0,24-10.745,24-24s-10.745-24-24-24H24C10.745,48,0,58.745,0,72s10.745,24,24,24
		h30.56L0.112,422.68c-0.729,4.358,2.213,8.481,6.57,9.21C7.118,431.963,7.559,432,8,432h24c3.63,0.001,6.807-2.443,7.736-5.952
		L91.096,232H296c4.418,0,8-3.582,8-8s-3.582-8-8-8H95.336l14.824-56h259.68l70.4,266.048c0.932,3.518,4.121,5.964,7.76,5.952h24
		c4.418-0.001,7.999-3.584,7.998-8.002c0-0.441-0.037-0.882-0.11-1.318L425.44,96H456z M16,72c0-4.418,3.582-8,8-8h432
		c4.418,0,8,3.582,8,8s-3.582,8-8,8H24C19.582,80,16,76.418,16,72z M462.552,416h-8.392l-70.4-266.048
		c-0.932-3.518-4.121-5.964-7.76-5.952H104c-3.63-0.001-6.807,2.442-7.736,5.952L25.84,416h-8.392L70.776,96h338.448L462.552,416z"
		/>
	<path style="fill:#231F20;" d="M360,216h-32c-4.418,0-8,3.582-8,8s3.582,8,8,8h32c4.418,0,8-3.582,8-8S364.418,216,360,216z"/>
</g>
<g>
</g>
<g>
</g>
<g>
</g>
<g>
</g>
<g>
</g>
<g>
</g>
<g>
</g>
<g>
</g>
<g>
</g>
<g>
</g>
<g>
</g>
<g>
</g>
<g>
</g>
<g>
</g>
<g>
</g>
</svg>
