<svg id="Capa_1" enable-background="new 0 0 512 512" height="512" viewBox="0 0 512 512" width="512" xmlns="http://www.w3.org/2000/svg"><g><g><g><path d="m512 123.521v202.369h-512v-202.369h60.004l209.496 42.829 182.496-42.829z" fill="#66e7ec"/><path d="m255.667 325.89v-162.368l13.833 2.828 182.496-42.829h60.004v202.369z" fill="#00d7df"/><g><g><path d="m120.593 241.105c7.85 0 15.37 6.903 15.007 15.007-.364 8.131-6.594 15.007-15.007 15.007-7.85 0-15.37-6.903-15.007-15.007.364-8.131 6.594-15.007 15.007-15.007z" fill="#65adfd"/></g></g><g><g><path d="m75.024 241.105c7.85 0 15.37 6.903 15.007 15.007-.364 8.131-6.594 15.007-15.007 15.007-7.85 0-15.37-6.903-15.007-15.007.364-8.131 6.593-15.007 15.007-15.007z" fill="#fff587"/></g></g><path d="m60.004 186.694v-63.173h391.992v63.173h-60.07l-129.926-20.344-142.676 20.344z" fill="#00d7df"/><path d="m391.926 186.694-129.926-20.344-6.333.903v-43.732h196.329v63.173z" fill="#28b9cf"/><g><path d="m119.324 20.294h136.343v166.4h-136.343z" fill="#e7ffff"/></g><g><path d="m255.667 186.694v-166.4h65.396l70.863 69.538v96.862z" fill="#daf2fe"/></g><path d="m0 324.284h512v64.893h-512z" fill="#99eff2"/><path d="m255.667 324.284h256.333v64.893h-256.333z" fill="#66e7ec"/></g><g><g><path d="m391.906 89.832-70.906-.064.063-69.474z" fill="#b2dcfd"/></g></g></g><g><path d="m409.5 491.706c-56.519 0-102.5-45.981-102.5-102.5s45.982-102.5 102.5-102.5 56.519 205 0 205z" fill="#655aa5"/></g><g><path d="m409.5 286.677v204.999c56.519 0 102.5-45.981 102.5-102.5 0-56.517-45.981-102.499-102.5-102.499z" fill="#54489b"/></g><g><g><g><path d="m402.488 435.967-40.114-40.115 21.223-21.224 18.891 18.891 40.791-40.789 21.223 21.223z" fill="#e7ffff"/></g></g></g><g><path d="m443.279 352.73-33.779 33.778v42.447l55.002-55.002z" fill="#daf2fe"/></g></g></svg>