<svg id="Flat" height="512" viewBox="0 0 512 512" width="512" xmlns="http://www.w3.org/2000/svg"><rect fill="#6a7073" height="448" rx="16" width="352" x="24" y="40"/><path d="m56 88h288v368h-288z" fill="#fae8d8"/><path d="m163.1 42.63 4.9 29.37v16h64v-16l4.9-29.37a16 16 0 0 0 -15.787-18.63h-42.226a16 16 0 0 0 -15.787 18.63z" fill="#ce3536"/><path d="m128 72h144a16 16 0 0 1 16 16v32a0 0 0 0 1 0 0h-176a0 0 0 0 1 0 0v-32a16 16 0 0 1 16-16z" fill="#e74444"/><path d="m432 88a24 24 0 0 0 -24 24v264l24 48 24-48v-264a24 24 0 0 0 -24-24z" fill="#d9dbdd"/><path d="m256 272h-128a8 8 0 0 1 0-16h128a8 8 0 0 1 0 16z" fill="#7e8488"/><path d="m256 320h-128a8 8 0 0 1 0-16h128a8 8 0 0 1 0 16z" fill="#7e8488"/><path d="m256 368h-128a8 8 0 0 1 0-16h128a8 8 0 0 1 0 16z" fill="#7e8488"/><path d="m256 416h-128a8 8 0 0 1 0-16h128a8 8 0 0 1 0 16z" fill="#7e8488"/><path d="m408 120h48v112h-48z" fill="#6a7073"/><path d="m408 264h48v112h-48z" fill="#6a7073"/><path d="m488 232a8 8 0 0 1 -8-8v-88a8.009 8.009 0 0 0 -8-8h-64a8 8 0 0 1 0-16h64a24.028 24.028 0 0 1 24 24v88a8 8 0 0 1 -8 8z" fill="#c2c5c6"/><g fill="#7e8488"><circle cx="96" cy="408" r="8"/><circle cx="96" cy="360" r="8"/><circle cx="96" cy="312" r="8"/><circle cx="96" cy="264" r="8"/><path d="m304 272h-8a8 8 0 0 1 0-16h8a8 8 0 0 1 0 16z"/><path d="m304 320h-16a8 8 0 0 1 0-16h16a8 8 0 0 1 0 16z"/><path d="m304 368h-16a8 8 0 0 1 0-16h16a8 8 0 0 1 0 16z"/><path d="m304 416h-16a8 8 0 0 1 0-16h16a8 8 0 0 1 0 16z"/></g><path d="m200 176a8 8 0 0 1 -8-8v-16a8 8 0 0 1 16 0v16a8 8 0 0 1 -8 8z" fill="#c2c5c6"/><path d="m248 216a48 48 0 0 0 -96 0z" fill="#d9dbdd"/><path d="m264 224h-128a8 8 0 0 1 0-16h128a8 8 0 0 1 0 16z" fill="#c2c5c6"/></svg>