<svg id="Filled" height="512" viewBox="0 0 512 512" width="512" xmlns="http://www.w3.org/2000/svg"><path d="m336 488v-416h56l39.045 156.178a32.027 32.027 0 0 1 .955 7.761v252.061z" fill="#93573d"/><path d="m352 488h-272v-252.061a32.033 32.033 0 0 1 .955-7.761l39.045-156.178h272l-39.045 156.178a32.033 32.033 0 0 0 -.955 7.761z" fill="#ab6647"/><path d="m208 264-16 32h-32l-16-32z" fill="#d9dbdd"/><path d="m182.816 440h-13.632a16 16 0 0 1 -15.96-17.14l6.776-126.86h32l6.776 126.86a16 16 0 0 1 -15.96 17.14z" fill="#e74444"/><path d="m248 328v-8l-16-8s6-80 48-80v96z" fill="#d9dbdd"/><path d="m270.32 440h-12.64a16 16 0 0 1 -15.921-17.592l6.241-94.408h32l6.241 94.408a16 16 0 0 1 -15.921 17.592z" fill="#e74444"/><path d="m104 24c-8.837 0-16 14.327-16 32s7.163 32 16 32h288v-64z" fill="#93573d"/><ellipse cx="392" cy="56" fill="#ab6647" rx="16" ry="32"/><path d="m352 488 40-40 40 40z" fill="#794832"/><path d="m438.806 226.238-34.006-136.033c6.825-6.895 11.2-19.359 11.2-34.205 0-22.8-10.317-40-24-40h-288c-13.682 0-24 17.2-24 40s10.318 40 24 40h1.754l-32.56 130.237a40.062 40.062 0 0 0 -1.194 9.7v252.063a8 8 0 0 0 8 8h352a8 8 0 0 0 8-8v-252.061a40.047 40.047 0 0 0 -1.194-9.701zm-14.806 9.701v232.747l-24-24v-196.686a8 8 0 0 0 -16 0v196.686l-24 24v-232.747a24.048 24.048 0 0 1 .716-5.82l31.284-125.136 31.283 125.133a24.042 24.042 0 0 1 .717 5.823zm-32 223.374 20.686 20.687h-41.372zm8-403.313c0 15.488-6.009 24-8 24s-8-8.512-8-24 6.009-24 8-24 8 8.512 8 24zm-304 0c0-16.281 6.417-24 8-24h268.542a60.643 60.643 0 0 0 -4.542 24 60.643 60.643 0 0 0 4.542 24h-268.542c-1.583 0-8-7.719-8-24zm-8 179.939a23.993 23.993 0 0 1 .717-5.82l33.529-134.119h255.508l-32.561 130.24a40.067 40.067 0 0 0 -1.193 9.7v244.06h-256z"/><path d="m208 224a8 8 0 0 0 -8 8v24h-16v-24a8 8 0 0 0 -16 0v24h-16v-24a8 8 0 0 0 -16 0v32h.015a7.977 7.977 0 0 0 .83 3.578l15.055 30.107-6.661 124.685a24 24 0 0 0 23.945 25.63h13.632a24 24 0 0 0 23.945-25.63l-6.661-124.685 15.053-30.107a7.977 7.977 0 0 0 .83-3.578h.017v-32a8 8 0 0 0 -8-8zm-12.944 48-8 16h-22.112l-8-16zm-6.385 157.452a7.919 7.919 0 0 1 -5.855 2.548h-13.632a8 8 0 0 1 -7.98-8.57l.009-.143 6.371-119.287h16.832l6.371 119.287.009.143a7.918 7.918 0 0 1 -2.125 6.022z"/><path d="m294.216 421.76-6.216-94.022v-95.738a8 8 0 0 0 -8-8c-48.861 0-55.71 83.833-55.978 87.4a8 8 0 0 0 4.4 7.753l11.578 5.791v2.794l-6.215 94.021a24 24 0 0 0 23.895 26.241h12.64a24 24 0 0 0 23.9-26.24zm-46.3-147.45c6.148-18.09 14.226-29.095 24.086-32.852v78.542h-16.002a8 8 0 0 0 -4.422-7.155l-11.03-5.515a175.807 175.807 0 0 1 7.366-33.02zm28.338 155.058a7.91 7.91 0 0 1 -5.934 2.632h-12.64a8 8 0 0 1 -7.96-8.8c.009-.09.016-.179.022-.268l5.746-86.932h17.024l5.747 86.936c.006.089.012.178.022.267a7.909 7.909 0 0 1 -2.029 6.165z"/></svg>