<svg id="Flat" height="512" viewBox="0 0 512 512" width="512" xmlns="http://www.w3.org/2000/svg"><path d="m344 128 39.35 133.789a16.015 16.015 0 0 1 .65 4.511v229.7h-128v-368z" fill="#93573d"/><path d="m344 472a8 8 0 0 1 -8-8v-168a8 8 0 0 1 16 0v168a8 8 0 0 1 -8 8z" fill="#794832"/><path d="m304 496h-280v-228.061a32.033 32.033 0 0 1 .955-7.761l39.045-132.178h280l-39.045 132.178a32.033 32.033 0 0 0 -.955 7.761z" fill="#ab6647"/><path d="m126.816 440h-13.632a16 16 0 0 1 -15.96-17.14l6.776-94.86h32l6.776 94.86a16 16 0 0 1 -15.96 17.14z" fill="#e74444"/><path d="m214.32 440h-12.64a16 16 0 0 1 -15.921-17.592l6.241-62.408h32l6.241 62.408a16 16 0 0 1 -15.921 17.592z" fill="#e74444"/><path d="m56 80c-8.837 0-16 10.745-16 24s7.163 24 16 24h288v-48z" fill="#93573d"/><path d="m392 100.773a35.226 35.226 0 0 1 -35.226 35.227h-19.667a3.226 3.226 0 0 0 -1.981.68l-49.926 38.832a27.227 27.227 0 0 1 -37.976-4.483 27.228 27.228 0 0 1 2.008-36.26l49.261-49.261a3.226 3.226 0 0 0 -2.282-5.508h-144.211l80.114-43.7a35.232 35.232 0 0 1 16.869-4.3h203.791a3.227 3.227 0 0 1 3.226 3.226v57.548a3.227 3.227 0 0 1 -3.226 3.226h-56a4.773 4.773 0 0 0 -4.774 4.773z" fill="#f5cbaa"/><path d="m424 16h64v104h-64z" fill="#155384"/><path d="m304 496 40-40 40 40z" fill="#794832"/><g fill="#d9dbdd"><path d="m152 264a8 8 0 0 0 -8 8v24h-16v-24a8 8 0 0 0 -16 0v24h-16v-24a8 8 0 0 0 -16 0v24l24 32h32l24-32v-24a8 8 0 0 0 -8-8z"/><path d="m192 360v-8l-16-8s6-80 48-80v96z"/></g></svg>