<svg height="512" viewBox="0 0 64 64" width="512" xmlns="http://www.w3.org/2000/svg"><g id="Credit_card-2" data-name="Credit card"><path d="m61 20v12a4 4 0 0 1 -4 4h-36a4 4 0 0 1 -4-4v-12z" fill="#ffcd00"/><path d="m43 36h14a4 4 0 0 0 4-4v-14a17.99 17.99 0 0 1 -18 18z" fill="#ebbf00"/><path d="m17 14v2h44v-2a4 4 0 0 0 -4-4h-36a4 4 0 0 0 -4 4z" fill="#ffcd00"/><path d="m17 16h44v4h-44z" fill="#6d6e71"/><circle cx="54" cy="29" fill="#f7941d" r="3"/><path d="m3 42v19h10v-2-14-3z" fill="#006df0"/><path d="m10 42h3v19h-3z" fill="#005ece"/><path d="m44.42 47.52 12.5-7.22a3 3 0 0 1 3 5.2l-22.608 14.062a8 8 0 0 1 -5.021 1.167l-16.891-1.689a7.828 7.828 0 0 0 -.8-.04h-1.6v-14h1.23a4 4 0 0 0 1.485-.286l5.8-2.32a11.994 11.994 0 0 1 7.142-.554l13.558 3.113a3 3 0 0 1 2.122 3.674 3 3 0 0 1 -3.675 2.121l-9.662-1.88" fill="#ffbcab"/><circle cx="49" cy="29" fill="#f15a29" r="3"/><g fill="#231f20"><path d="m21 37h36a5.006 5.006 0 0 0 5-5v-18a5.006 5.006 0 0 0 -5-5h-36a5.006 5.006 0 0 0 -5 5v18a5.006 5.006 0 0 0 5 5zm36-2h-36a3 3 0 0 1 -3-3v-11h42v11a3 3 0 0 1 -3 3zm-39-18h42v2h-42zm3-6h36a3 3 0 0 1 3 3v1h-42v-1a3 3 0 0 1 3-3z"/><path d="m54 25a3.988 3.988 0 0 0 -2.51.894 4 4 0 1 0 0 6.212 4 4 0 1 0 2.51-7.106zm-5 6a2 2 0 1 1 2-2 2 2 0 0 1 -2 2zm5 0a1.968 1.968 0 0 1 -1.3-.486 3.946 3.946 0 0 0 0-3.028 1.968 1.968 0 0 1 1.3-.486 2 2 0 0 1 0 4z"/><path d="m36 31h-13a1 1 0 0 0 0 2h13a1 1 0 0 0 0-2z"/><path d="m23 30h1a1 1 0 0 0 0-2h-1a1 1 0 0 0 0 2z"/><path d="m27 30h1a1 1 0 0 0 0-2h-1a1 1 0 0 0 0 2z"/><path d="m31 30h1a1 1 0 0 0 0-2h-1a1 1 0 0 0 0 2z"/><path d="m36 28h-1a1 1 0 0 0 0 2h1a1 1 0 0 0 0-2z"/><path d="m61.885 40.9a4.016 4.016 0 0 0 -5.465-1.464l-11.42 6.596a4.041 4.041 0 0 0 -2.558-2.054l-13.561-3.113a12.953 12.953 0 0 0 -7.736.6l-5.8 2.321a2.987 2.987 0 0 1 -1.116.214h-.229v-2a1 1 0 0 0 -1-1h-10a1 1 0 0 0 -1 1v19a1 1 0 0 0 1 1h10a1 1 0 0 0 1-1v-1h.6q.349 0 .7.035l16.893 1.689q.441.044.884.044a9.065 9.065 0 0 0 4.766-1.357l22.581-14.047a4.007 4.007 0 0 0 1.461-5.464zm-49.885 19.1h-8v-17h8zm47.392-15.349-22.607 14.062a7.06 7.06 0 0 1 -4.394 1.021l-16.891-1.69q-.45-.044-.9-.044h-.6v-12h.229a5 5 0 0 0 1.857-.357l5.8-2.321a10.954 10.954 0 0 1 6.547-.508l13.523 3.1a2.007 2.007 0 0 1 1.465 1.661.938.938 0 0 0 .012.1 2 2 0 0 1 -.062.684 2.024 2.024 0 0 1 -2.518 1.4l-9.664-1.88a1 1 0 0 0 -.382 1.963l9.6 1.864a4 4 0 0 0 4.9-2.828 4.026 4.026 0 0 0 .13-.8l11.983-6.922a2 2 0 0 1 3 1.723 2.043 2.043 0 0 1 -1.028 1.772z"/><path d="m8 45a1 1 0 0 0 -1 1v1a1 1 0 0 0 2 0v-1a1 1 0 0 0 -1-1z"/></g></g></svg>