<svg height="512" viewBox="0 0 512 512" width="512" xmlns="http://www.w3.org/2000/svg"><g><g fill="#57a4ff"><path d="m496 496h-480l18.75-73.63a80.021 80.021 0 0 1 60.44-56.31l104.81-22.06a51.621 51.621 0 0 0 .6 8c3.96 25.86 27.25 40 55.4 40s51.44-14.14 55.4-40a51.621 51.621 0 0 0 .6-8l104.81 22.06a80.021 80.021 0 0 1 60.44 56.31z"/><g><path d="m360 120v38.55a88.026 88.026 0 0 1 -56.93-37.29 136.174 136.174 0 0 1 -151.07 26.72v-27.98z"/><path d="m200.6 352h-.6v-8a51.621 51.621 0 0 0 .6 8z"/><path d="m312 344v8h-.6a51.621 51.621 0 0 0 .6-8z"/></g><path d="m360 136v22.55a88.026 88.026 0 0 1 -56.93-37.29 136.174 136.174 0 0 1 -151.07 26.72v-27.98a104 104 0 0 1 104-104c28.13 0 48 8 72.37 23.32 18.59 10 59.41 35.01 71.63 16.68 0 0 16 56-40 80z"/></g><g fill="#004fac"><path d="m503.75 494.03-18.75-73.63c-.02-.08-.04-.15-.06-.23a87.824 87.824 0 0 0 -66.48-61.94l-98.46-20.72v-21.65a112.136 112.136 0 0 0 46.85-75.86h5.15a28.031 28.031 0 0 0 28-28v-24a28.031 28.031 0 0 0 -28-28h-4v-18.88c28.43-14.02 37.96-36.18 40.88-52.73a84.2 84.2 0 0 0 -1.19-34.59 8.006 8.006 0 0 0 -14.35-2.24c-7.03 10.55-42.27-8.88-55.53-16.19-1.95-1.08-3.76-2.08-5.41-2.97-24.01-15.07-45.21-24.4-76.4-24.4a112.123 112.123 0 0 0 -112 112v40h-4a28.031 28.031 0 0 0 -28 28v24a28.031 28.031 0 0 0 28 28h5.15a112.136 112.136 0 0 0 46.85 75.86v21.65l-98.46 20.72a87.824 87.824 0 0 0 -66.48 61.94c-.02.08-.04.15-.06.23l-18.75 73.63a7.99 7.99 0 0 0 7.75 9.97h480a7.99 7.99 0 0 0 7.75-9.97zm-359.75-270.03h-4a12.01 12.01 0 0 1 -12-12v-24a12.01 12.01 0 0 1 12-12h4zm228-48a12.01 12.01 0 0 1 12 12v24a12.01 12.01 0 0 1 -12 12h-4v-48zm-212-56a96.115 96.115 0 0 1 96-96c27.45 0 46.42 8.45 68.11 22.09.16.1.31.19.47.28 1.67.89 3.51 1.91 5.5 3.01 18.03 9.94 45.6 25.14 63.96 20.17 1.02 15.87-2.56 44.26-37.19 59.1a8 8 0 0 0 -4.85 7.35v12.33a80.64 80.64 0 0 1 -42.3-31.55 8 8 0 0 0 -12.22-1.24 128.23 128.23 0 0 1 -137.48 27.17zm0 104v-64.19a144.271 144.271 0 0 0 141.98-26.69 96.725 96.725 0 0 0 50.02 31.83v59.05a96 96 0 0 1 -192 0zm144 101.18v18.82c0 14.76-6.46 24.76-15.7 31.07s-21.23 8.93-32.3 8.93c-35.43 0-48-21.55-48-40v-18.82a111.88 111.88 0 0 0 96 0zm112 162.82v-32a8 8 0 0 0 -16 0v32h-288v-32a8 8 0 0 0 -16 0v32h-69.71l16.18-63.54a71.868 71.868 0 0 1 54.37-50.57l95.92-20.19a50.6 50.6 0 0 0 18.63 32.14c11.38 9.13 27.22 14.16 44.61 14.16s33.23-5.03 44.61-14.16a50.6 50.6 0 0 0 18.63-32.14l95.92 20.19a71.868 71.868 0 0 1 54.37 50.57l16.18 63.54z"/><path d="m280 272a8 8 0 0 0 -8-8h-32a8 8 0 0 0 0 16h32a8 8 0 0 0 8-8z"/><circle cx="208" cy="192" r="16"/><circle cx="304" cy="192" r="16"/></g></g></svg>