<svg height="512" viewBox="0 0 64 64" width="512" xmlns="http://www.w3.org/2000/svg"><g id="website-food-menu-hand-online-mobile-restaurant-order"><g fill="#78b9eb"><path d="m43 17h3v5h-3z"/><path d="m49 16h3v6h-3z"/><path d="m52 17h3v5h-3z"/><path d="m57 41v12l-3 4v5h-13v-6l-3-4v-8l3-3v-8a2.006 2.006 0 0 1 2-2 1.9 1.9 0 0 1 .92.23 1.724 1.724 0 0 1 .49.36 1.813 1.813 0 0 1 .32.41 2 2 0 0 1 .27 1v7a2.006 2.006 0 0 1 2-2 2.015 2.015 0 0 1 2 2 2.006 2.006 0 0 1 2-2 2.015 2.015 0 0 1 2 2v1a2.015 2.015 0 0 1 2-2 2.006 2.006 0 0 1 2 2z"/><path d="m46 18h3v4h-3z"/><path d="m55 22-1 10h-9.27a1.813 1.813 0 0 0 -.32-.41 1.724 1.724 0 0 0 -.49-.36l-.02-.23-.9-9z"/><path d="m29 40h6v4h-6z"/><path d="m37 22-1 10h-8l-1-10z"/><path d="m26 19h12v3h-12z"/><path d="m12 40h6v4h-6z"/><path d="m22 21 1 5h-6-4-6l1-5z"/><path d="m22 32h-14l-1-6h6v3h4v-3h6z"/><path d="m3 3h58v8h-58z"/></g><path d="m61 2h-58a1 1 0 0 0 -1 1v50a1 1 0 0 0 1 1h35.25l1.75 2.33v5.67h2v-6a.984.984 0 0 0 -.2-.6l-2.8-3.73v-7.26l1-1v3.59h2v-14a1 1 0 0 1 2 0v14h2v-7a1 1 0 0 1 2 0v7h2v-7a1 1 0 0 1 2 0v7h2v-6a1 1 0 0 1 2 0v11.67l-2.8 3.73a.984.984 0 0 0 -.2.6v5h2v-4.67l2.5-3.33h3.5a1 1 0 0 0 1-1v-50a1 1 0 0 0 -1-1zm-15.78 29a3.606 3.606 0 0 0 -.35-.33l-.77-7.67h9.79l-.8 8zm-1.22-10v-3h1v3zm3 0v-2h1v2zm3 0v-4h1v4zm3 0v-3h1v3zm7 31h-2v-11a3.009 3.009 0 0 0 -3-3 2.942 2.942 0 0 0 -1.47.4 2.973 2.973 0 0 0 -4.53-.62 2.974 2.974 0 0 0 -2-.78 3 3 0 0 0 -1 .18v-4.18h8a1.015 1.015 0 0 0 1-.9l1-10.1v-5a1 1 0 0 0 -1-1h-2a1 1 0 0 0 -1-1h-3a1 1 0 0 0 -1 1v1h-1a1 1 0 0 0 -1-1h-3a1 1 0 0 0 -1 1v5.1l.8 7.92a3 3 0 0 0 -2.8 2.98v7.59l-2.71 2.7a1.033 1.033 0 0 0 -.29.71v8h-33v-40h56zm0-42h-56v-6h56z" fill="#006df0"/><path d="m6 6h2v2h-2z" fill="#006df0"/><path d="m10 6h2v2h-2z" fill="#006df0"/><path d="m14 6h2v2h-2z" fill="#006df0"/><path d="m23.98 25.8-1-5a1 1 0 0 0 -.98-.8h-14a1 1 0 0 0 -.98.8l-1 5a1.089 1.089 0 0 0 -.01.36l1 6a1 1 0 0 0 .99.84h14a1 1 0 0 0 .99-.84l1-6a1.089 1.089 0 0 0 -.01-.36zm-15.16-3.8h12.36l.6 3h-13.56zm7.18 5v1h-2v-1zm5.15 4h-12.3l-.67-4h3.82v2a1 1 0 0 0 1 1h4a1 1 0 0 0 1-1v-2h3.82z" fill="#006df0"/><path d="m38 18h-3v-1.38l1.45-.73-.9-1.78-2 1a.977.977 0 0 0 -.55.89v2h-7a1 1 0 0 0 -1 1v3a1 1 0 0 0 1 1h.09l.91 9.1a1.015 1.015 0 0 0 1 .9h8a1.015 1.015 0 0 0 1-.9l.91-9.1h.09a1 1 0 0 0 1-1v-3a1 1 0 0 0 -1-1zm-2.91 13h-6.18l-.8-8h7.78zm1.91-10h-10v-1h10z" fill="#006df0"/><path d="m18 39h-6a1 1 0 0 0 -1 1v4a1 1 0 0 0 1 1h6a1 1 0 0 0 1-1v-4a1 1 0 0 0 -1-1zm-1 4h-4v-2h4z" fill="#006df0"/><path d="m11 35h2v2h-2z" fill="#006df0"/><path d="m15 35h4v2h-4z" fill="#006df0"/><path d="m35 39h-6a1 1 0 0 0 -1 1v4a1 1 0 0 0 1 1h6a1 1 0 0 0 1-1v-4a1 1 0 0 0 -1-1zm-1 4h-4v-2h4z" fill="#006df0"/><path d="m28 35h2v2h-2z" fill="#006df0"/><path d="m32 35h4v2h-4z" fill="#006df0"/></g></svg>